<svg width="100" height="100" viewBox="0 0 100 100" fill="none" xmlns="http://www.w3.org/2000/svg">
<rect width="100" height="100" rx="20" fill="white"/>
<path d="M88.4875 46.4338L53.5571 11.5075C51.5438 9.49751 48.2837 9.49751 46.2637 11.5075L39.027 18.7574L48.2271 27.9573C50.3771 27.2407 52.8238 27.724 54.5238 29.4273C56.2438 31.1439 56.7172 33.6206 55.9838 35.7606L64.8439 44.6271C66.9939 43.8838 69.4673 44.3671 71.1773 46.0771C73.5807 48.4771 73.5807 52.3571 71.1773 54.757C68.7806 57.1537 64.9072 57.1537 62.5105 54.757C60.7139 52.9537 60.2639 50.3004 61.1639 48.1038L52.8671 39.8505V61.6003C53.4538 61.887 54.0071 62.277 54.4938 62.7603C56.8705 65.1636 56.8705 69.0369 54.4938 71.4269C52.0971 73.8302 48.1971 73.8302 45.797 71.4269C43.4003 69.0302 43.4003 65.1636 45.797 62.7669C46.4037 62.167 47.0871 61.7136 47.8137 61.4136V39.4505C47.0904 39.1472 46.4004 38.7105 45.8137 38.1139C43.997 36.2972 43.5603 33.6406 44.4937 31.4173L35.4536 22.334L11.5 46.2705C9.49999 48.2871 9.49999 51.5504 11.5 53.567L46.4337 88.49C48.4471 90.5033 51.7071 90.5033 53.7205 88.49L88.4875 53.7237C90.5042 51.7137 90.5042 48.4504 88.4875 46.4338Z" fill="#F05032"/>
</svg>
