<svg width="100" height="100" viewBox="0 0 100 100" fill="none" xmlns="http://www.w3.org/2000/svg">
<rect width="100" height="100" rx="20" fill="white"/>
<path d="M50 11C27.9054 11 10.0098 28.9056 10.0098 50.9902C10.0098 68.6625 21.467 83.6489 37.3531 88.9309C39.3526 89.3075 40.0857 88.0711 40.0857 87.008C40.0857 86.0583 40.0524 83.5422 40.0357 80.2097C28.9118 82.6225 26.5657 74.8444 26.5657 74.8444C24.7462 70.2288 22.1168 68.9958 22.1168 68.9958C18.4944 66.5164 22.3967 66.5664 22.3967 66.5664C26.4124 66.8463 28.5219 70.6854 28.5219 70.6854C32.0877 76.8005 37.8829 75.0343 40.169 74.0112C40.529 71.4252 41.5587 69.6623 42.7018 68.6625C33.8206 67.6628 24.4862 64.2236 24.4862 48.9007C24.4862 44.5351 26.0358 40.9693 28.6019 38.17C28.152 37.1603 26.8023 33.0946 28.9518 27.5859C28.9518 27.5859 32.301 26.5129 39.9491 31.6849C43.1483 30.7952 46.5475 30.3553 49.9467 30.3353C53.3458 30.3553 56.745 30.7952 59.9442 31.6849C67.5423 26.5129 70.8915 27.5859 70.8915 27.5859C73.041 33.0946 71.6913 37.1603 71.2914 38.17C73.8408 40.9693 75.3904 44.5351 75.3904 48.9007C75.3904 64.2636 66.0427 67.6461 57.1449 68.6292C58.5445 69.8289 59.8442 72.2816 59.8442 76.0274C59.8442 81.3794 59.7942 85.6784 59.7942 86.9781C59.7942 88.0278 60.4941 89.2775 62.5436 88.8776C78.543 83.6322 89.9902 68.6359 89.9902 50.9902C89.9902 28.9056 72.0846 11 50 11Z" fill="#181717"/>
</svg>
