<svg width="100" height="100" viewBox="0 0 100 100" fill="none" xmlns="http://www.w3.org/2000/svg">
<rect width="100" height="100" rx="20" fill="white"/>
<path d="M57.5116 50.0084C57.5116 52.0054 56.7185 53.9206 55.3068 55.333C53.895 56.7454 51.9801 57.5393 49.9832 57.5402C47.9856 57.5402 46.0699 56.7467 44.6574 55.3342C43.2449 53.9217 42.4514 52.006 42.4514 50.0084C42.4514 48.0114 43.2444 46.0962 44.6562 44.6838C46.0679 43.2714 47.9828 42.4775 49.9798 42.4766C51.9773 42.4766 53.8931 43.2702 55.3056 44.6826C56.7181 46.0951 57.5116 48.0109 57.5116 50.0084ZM66.4312 14C61.8973 14 55.9655 17.2337 49.9663 22.832C43.9705 17.264 38.0354 14.0674 33.5048 14.0674C32.1238 14.0674 30.8674 14.3806 29.7794 15.0038C25.1478 17.6749 24.1103 25.9983 26.5019 36.4438C16.2484 39.6101 9.57895 44.6728 9.57895 50.0084C9.57895 55.3642 16.2821 60.4404 26.5659 63.5832C24.1945 74.0691 25.2522 82.4059 29.8939 85.0737C30.9718 85.7036 32.2181 86 33.6059 86C38.1364 86 44.0716 82.7663 50.0707 77.1613C56.0665 82.7326 62.0017 85.9293 66.5322 85.9293C67.9133 85.9293 69.1697 85.6261 70.2577 85.0029C74.8859 82.3352 75.9267 74.0118 73.5352 63.5629C83.7516 60.4236 90.421 55.3507 90.421 50.0084C90.421 44.6526 83.7179 39.5764 73.4341 36.4269C75.8055 25.9512 74.7478 17.6076 70.1061 14.9364C69.0349 14.3166 67.792 14.0034 66.4312 14ZM66.4143 17.6716V17.6918C67.1722 17.6918 67.7819 17.84 68.2939 18.1196C70.5373 19.4063 71.5107 24.3006 70.7528 30.5962C70.5709 32.1457 70.2745 33.7794 69.9107 35.4467C66.677 34.6518 63.1537 34.0421 59.4451 33.648C57.2219 30.5996 54.9145 27.8307 52.5903 25.4055C57.9528 20.4202 62.9886 17.6851 66.4177 17.6749L66.4143 17.6716ZM33.5048 17.7389C36.9137 17.7389 41.9731 20.4606 47.3491 25.4189C45.0383 27.8442 42.7343 30.5962 40.5448 33.6446C36.816 34.0387 33.2893 34.6484 30.0589 35.4568C29.6817 33.8063 29.4021 32.2097 29.2034 30.6737C28.4286 24.3815 29.3853 19.4905 31.6084 18.1869C32.2484 17.8838 32.9558 17.7558 33.5048 17.7389ZM49.9495 28.0126C51.4821 29.5891 53.0147 31.3541 54.5305 33.2808C53.0484 33.2135 51.5326 33.1663 50 33.1663C48.4505 33.1663 46.9179 33.2 45.4189 33.2808C46.9011 31.3541 48.4337 29.5924 49.9495 28.0126ZM50 36.8581C52.4926 36.8581 54.9752 36.9726 57.4173 37.1714C58.7848 39.1318 60.1187 41.2236 61.4021 43.4366C62.6552 45.5924 63.7937 47.7819 64.8312 49.9916C63.7937 52.1979 62.6552 54.4042 61.4189 56.56C60.1389 58.7832 58.8152 60.8985 57.4442 62.8589C54.992 63.0712 52.5061 63.1891 50 63.1891C47.5074 63.1891 45.0248 63.0712 42.5827 62.8758C41.2152 60.9154 39.8813 58.8202 38.5979 56.6105C37.3448 54.4547 36.2063 52.2653 35.1688 50.0556C36.1895 47.8425 37.3448 45.6328 38.5811 43.4737C39.8611 41.2505 41.1848 39.1419 42.5558 37.1815C45.008 36.9659 47.4939 36.8514 50 36.8514V36.8581ZM37.7558 37.7137C36.9474 38.9836 36.1389 40.2838 35.3844 41.6211C34.6265 42.9347 33.9192 44.2552 33.2455 45.5756C32.3528 43.3659 31.5949 41.1629 30.9684 39.0173C33.1242 38.512 35.3979 38.0606 37.7558 37.7137ZM62.2105 37.7137C64.5516 38.0606 66.8084 38.4884 68.9676 39.0173C68.3613 41.1461 67.6034 43.3356 66.7444 45.5284C66.0707 44.2147 65.3634 42.8909 64.5886 41.5739C63.8307 40.2535 63.0223 38.9667 62.2139 37.7137H62.2105ZM72.528 39.9874C74.1583 40.4926 75.7078 41.0552 77.1596 41.6648C82.9937 44.1575 86.7663 47.4181 86.7663 50.0051C86.7495 52.592 82.9768 55.8661 77.1427 58.3419C75.728 58.9482 74.1785 59.4939 72.5785 60.0025C71.6354 56.7756 70.4025 53.4139 68.8733 49.9646C70.3891 46.5389 71.6017 43.1941 72.528 39.9806V39.9874ZM27.408 40.0008C28.3444 43.2345 29.5806 46.5928 31.1133 50.0387C29.5975 53.4644 28.3781 56.8093 27.4552 60.0227C25.8248 59.5175 24.2754 58.9516 22.8404 58.3385C17.0063 55.856 13.2337 52.592 13.2337 50.0051C13.2337 47.4181 17.0063 44.1373 22.8404 41.6648C24.2552 41.0585 25.8046 40.5128 27.408 40.0008ZM66.7444 54.4177C67.6371 56.6307 68.3949 58.8371 69.0215 60.9794C66.8657 61.5082 64.5886 61.9562 62.2307 62.2931C63.0392 61.0299 63.8476 59.7263 64.6055 58.3924C65.3634 57.0787 66.0674 55.7381 66.7444 54.4177ZM33.2455 54.4851C33.9192 55.8055 34.6265 57.1225 35.4013 58.4429C36.176 59.7566 36.9676 61.0434 37.776 62.2931C35.4349 61.9495 33.1781 61.5183 31.0189 60.9928C31.6253 58.8707 32.3865 56.6745 33.2421 54.4817L33.2455 54.4851ZM69.9411 64.5465C70.3183 66.2072 70.6147 67.8072 70.7966 69.3398C71.5714 75.632 70.6147 80.523 68.3916 81.8299C67.8964 82.1331 67.253 82.2611 66.4952 82.2611C63.0863 82.2611 58.0269 79.5427 52.6509 74.5811C54.9617 72.1558 57.2657 69.4072 59.4552 66.3621C63.184 65.9646 66.7107 65.3549 69.9411 64.5465ZM30.0926 64.5802C33.3263 65.3684 36.8497 65.9781 40.5583 66.3722C42.7815 69.4206 45.0888 72.1895 47.4131 74.6114C42.0404 79.6067 36.9979 82.3419 33.5688 82.3419C32.8278 82.3251 32.2013 82.1735 31.7061 81.8973C29.4627 80.6173 28.4893 75.7196 29.2472 69.424C29.4291 67.8745 29.7288 66.2442 30.0926 64.5802ZM45.4526 66.736C46.9347 66.8034 48.4505 66.8505 49.9832 66.8505C51.5326 66.8505 53.0653 66.8168 54.5642 66.736C53.0821 68.6627 51.5495 70.4244 50.0337 72.0076C48.5011 70.4244 46.9684 68.6627 45.4526 66.736Z" fill="#61DAFB"/>
</svg>
