<svg width="100" height="100" viewBox="0 0 100 100" fill="none" xmlns="http://www.w3.org/2000/svg">
<rect width="100" height="100" rx="20" fill="white"/>
<path d="M50 26C39.3333 26 32.6667 31.3333 30 42C34 36.6667 38.6667 34.6667 44 36C47.0433 36.76 49.2167 38.9667 51.6267 41.4133C55.55 45.3933 60.0867 50 70 50C80.6667 50 87.3333 44.6667 90 34C86 39.3333 81.3333 41.3333 76 40C72.9567 39.24 70.7833 37.0333 68.3733 34.5867C64.4533 30.6067 59.9167 26 50 26ZM30 50C19.3333 50 12.6667 55.3333 10 66C14 60.6667 18.6667 58.6667 24 60C27.0433 60.76 29.2167 62.9667 31.6267 65.4133C35.55 69.3933 40.0867 74 50 74C60.6667 74 67.3333 68.6667 70 58C66 63.3333 61.3333 65.3333 56 64C52.9567 63.24 50.7833 61.0333 48.3733 58.5867C44.4533 54.6067 39.9167 50 30 50Z" fill="#06B6D4"/>
</svg>
