<svg width="100" height="100" viewBox="0 0 100 100" fill="none" xmlns="http://www.w3.org/2000/svg">
<rect width="100" height="100" rx="20" fill="white"/>
<path d="M89.7353 21.8112L52.1553 88.7587C51.3793 90.141 49.3859 90.1491 48.5984 88.7736L10.2733 21.8174C9.41521 20.3187 10.7018 18.503 12.4068 18.8069L50.0271 25.5057C50.2672 25.5485 50.5129 25.548 50.7528 25.5045L87.5862 18.8162C89.2856 18.5077 90.5781 20.3094 89.7353 21.8112Z" fill="url(#paint0_linear_1_21)"/>
<path d="M67.9475 10.0196L40.1374 15.4486C39.9152 15.492 39.7138 15.6077 39.5648 15.7775C39.4158 15.9474 39.3277 16.1618 39.3143 16.3869L37.6037 45.1711C37.5943 45.329 37.6219 45.4869 37.6845 45.6322C37.747 45.7776 37.8427 45.9064 37.9639 46.0085C38.0852 46.1106 38.2286 46.1831 38.3829 46.2203C38.5372 46.2575 38.6981 46.2583 38.8527 46.2228L46.5956 44.4426C47.3199 44.2761 47.9746 44.9118 47.8256 45.6375L45.5253 56.86C45.3706 57.6152 46.0821 58.2609 46.8224 58.0368L51.6049 56.5894C52.3462 56.3653 53.0587 57.0128 52.9018 57.7687L49.2462 75.3965C49.0174 76.4992 50.4896 77.1004 51.1034 76.1552L51.5137 75.5238L74.175 30.4683C74.5547 29.714 73.9 28.8538 73.0687 29.0138L65.0984 30.5462C64.3497 30.69 63.7125 29.9951 63.9237 29.2654L69.1256 11.3001C69.3372 10.5685 68.6972 9.87332 67.9475 10.0196Z" fill="url(#paint1_linear_1_21)"/>
<defs>
<linearGradient id="paint0_linear_1_21" x1="-56.24" y1="562.272" x2="3977.01" y2="6060.4" gradientUnits="userSpaceOnUse">
<stop stop-color="#41D1FF"/>
<stop offset="1" stop-color="#BD34FE"/>
</linearGradient>
<linearGradient id="paint1_linear_1_21" x1="1628.79" y1="159.371" x2="2456.46" y2="5858.32" gradientUnits="userSpaceOnUse">
<stop stop-color="#FFEA83"/>
<stop offset="0.08333" stop-color="#FFDD35"/>
<stop offset="1" stop-color="#FFA800"/>
</linearGradient>
</defs>
</svg>
