<svg width="100" height="100" viewBox="0 0 100 100" fill="none" xmlns="http://www.w3.org/2000/svg">
<rect width="100" height="100" rx="20" fill="white"/>
<path d="M49.2304 47.4602H43.1603V37.2944H50.3614C54.2765 37.2944 56.4984 39.0411 56.4984 42.1999C56.4984 45.5729 53.9117 47.4602 49.2237 47.4602H49.2304ZM50.3145 51.4958H43.1637V62.6989H50.6291C55.5112 62.6989 58.0979 60.7414 58.0979 57.0605C58.0979 53.3797 55.4376 51.4958 50.3145 51.4958ZM90.1548 47.9621V52.0379C86.3802 52.3992 84.0747 55.1967 82.7061 59.6271C81.3441 64.0408 81.1568 69.455 81.3006 73.6344C81.4512 77.9845 78.0615 82 73.4805 82H26.5262C21.9419 82 18.5521 77.9845 18.7061 73.6344C18.8499 69.455 18.6626 64.0408 17.3006 59.6271C15.9287 55.1967 13.6198 52.3992 9.84524 52.0379V47.9621C13.6198 47.6008 15.932 44.8033 17.2973 40.3729C18.6626 35.9592 18.8499 30.545 18.7027 26.3656C18.5521 22.0155 21.9419 18 26.5262 18H73.4805C78.0648 18 81.4512 22.0155 81.3006 26.3656C81.1568 30.545 81.3441 35.9592 82.7061 40.3729C84.0747 44.8033 86.3802 47.6008 90.1548 47.9621ZM63.6292 57.3885C63.6292 52.8577 60.4402 49.5817 55.7053 49.0631V48.8723C59.1854 48.3068 61.9159 45.0744 61.9159 41.4671C61.9159 36.324 57.8569 32.9744 51.6698 32.9744H37.7495V67.0122H51.74C59.162 67.0122 63.6292 63.3782 63.6292 57.3885Z" fill="url(#paint0_linear_2_23)"/>
<defs>
<linearGradient id="paint0_linear_2_23" x1="50" y1="18" x2="50" y2="82" gradientUnits="userSpaceOnUse">
<stop stop-color="#8E13FE"/>
<stop offset="1" stop-color="#6B10F3"/>
</linearGradient>
</defs>
</svg>
