<svg width="100" height="100" viewBox="0 0 100 100" fill="none" xmlns="http://www.w3.org/2000/svg">
<rect width="100" height="100" rx="20" fill="white"/>
<path d="M15.1098 29.0831C8.02843 39.2554 8.90777 52.4855 14.3204 63.2874C14.4436 63.5505 14.5802 63.8003 14.7134 64.0501C14.79 64.2233 14.8766 64.3832 14.9699 64.5498C15.0132 64.6397 15.0731 64.7363 15.1264 64.8229C15.213 64.9961 15.3063 65.1626 15.3962 65.3292L15.9192 66.2152C16.0191 66.3784 16.109 66.5383 16.2189 66.7015C16.4055 67.0146 16.6186 67.3243 16.8118 67.6374C16.8984 67.7707 16.9784 67.8972 17.075 68.0271C17.3979 68.5357 17.7424 69.0302 18.1075 69.5094C18.3673 69.8658 18.6271 70.2122 18.9069 70.5586C18.9969 70.6851 19.1001 70.8117 19.1934 70.9416L19.9262 71.8376C20.0194 71.9375 20.1094 72.0608 20.2059 72.1674C20.5324 72.5604 20.8788 72.9434 21.2252 73.3332L21.2418 73.3531C21.6648 73.8867 22.1389 74.3775 22.6574 74.8187C22.9239 75.0952 23.1904 75.3683 23.4735 75.6348L23.8099 75.9579C24.1796 76.3076 24.5527 76.654 24.9424 76.9871C24.9491 76.9871 24.9524 76.9937 24.959 76.9971L25.1489 77.1636C25.4886 77.4601 25.8317 77.7565 26.1815 78.0296L26.5978 78.3794C26.8809 78.6059 27.1774 78.8224 27.4638 79.0455L27.9201 79.3953C28.2299 79.6284 28.5597 79.8582 28.8761 80.0847C28.9927 80.168 29.1093 80.2513 29.2292 80.3279L29.3291 80.4045L30.2617 81.0207L30.6614 81.2872C31.1544 81.6003 31.6407 81.9001 32.127 82.1932C32.2636 82.2598 32.4068 82.3397 32.5367 82.4197C32.8964 82.6262 33.2695 82.836 33.6325 83.0292C33.8324 83.1424 34.0389 83.239 34.2454 83.3423C34.4952 83.4822 34.755 83.6188 35.0248 83.7587C35.0892 83.7783 35.1517 83.804 35.2113 83.8353C35.3213 83.8852 35.4245 83.9385 35.5311 83.9918C35.9308 84.1917 36.3472 84.3849 36.7802 84.5747C36.8601 84.608 36.9467 84.6413 37.0333 84.688C37.5129 84.8978 37.9959 85.0976 38.4922 85.2942C38.6055 85.3275 38.7254 85.3841 38.8419 85.4274C39.2916 85.5973 39.7546 85.7705 40.2109 85.9337L40.3775 85.9936C40.8904 86.1668 41.3934 86.3334 41.9096 86.4933C42.0295 86.5266 42.1528 86.5699 42.2794 86.6032C42.8123 86.7631 43.3252 86.9529 43.8582 87.0595C78.0758 93.2948 88.0183 66.485 88.0183 66.485C79.6646 77.3635 64.8424 80.2313 50.7996 77.0404C50.28 76.9205 49.7604 76.7539 49.2341 76.6007C48.6002 76.4125 47.9706 76.2104 47.3456 75.9945L47.139 75.9145C46.686 75.7613 46.2497 75.5915 45.8067 75.4216C45.6862 75.3728 45.564 75.3283 45.4403 75.2884C44.9474 75.0885 44.4744 74.8853 43.9981 74.6755C43.8948 74.6422 43.8082 74.5955 43.705 74.5556C43.3014 74.3703 42.8995 74.1815 42.4992 73.9893C42.3793 73.9363 42.2615 73.8785 42.1461 73.8161C41.833 73.6696 41.5199 73.4997 41.2135 73.3398C41.0031 73.2388 40.7954 73.1322 40.5906 73.0201C40.2109 72.8202 39.8345 72.6037 39.4581 72.3972C39.3449 72.3173 39.215 72.2506 39.0851 72.1774C38.5929 71.8855 38.1054 71.5857 37.6229 71.278C37.489 71.1959 37.3579 71.1092 37.2298 71.0182C36.8763 70.7992 36.5298 70.5693 36.1906 70.3287C36.074 70.2521 35.9674 70.1689 35.8475 70.0856C35.5155 69.8565 35.188 69.621 34.8649 69.3795C34.725 69.2662 34.5751 69.1596 34.4253 69.0464C34.1321 68.8132 33.8357 68.5967 33.5426 68.3536L33.1496 68.0371C32.7712 67.734 32.3992 67.423 32.0337 67.1045C31.996 67.0663 31.9547 67.0317 31.9105 67.0012L30.7547 65.9487L30.4216 65.6356C30.1485 65.3558 29.8687 65.0893 29.5889 64.8162L29.2625 64.4831C28.9106 64.133 28.5674 63.7743 28.2332 63.4073L28.1833 63.354C27.8302 62.9676 27.4838 62.5712 27.1407 62.1715C27.0508 62.0716 26.9642 61.9584 26.8743 61.8485L26.1182 60.9258C25.7341 60.4323 25.3566 59.9338 24.9857 59.4303C17.1982 48.8016 14.3803 34.126 20.6123 22.0917M37.0766 20.5162C31.9471 27.8806 32.2336 37.7332 36.2306 45.5241C36.8911 46.835 37.6458 48.0962 38.4889 49.2979C39.255 50.3971 40.101 51.6994 41.1302 52.5887C41.4866 52.9951 41.873 53.3881 42.276 53.7878L42.5758 54.0876C42.9555 54.454 43.3486 54.8104 43.7416 55.1701L43.7949 55.2134C44.2441 55.6056 44.7039 55.9854 45.1738 56.3526C45.2871 56.4292 45.3837 56.5191 45.4936 56.5957C45.9599 56.9555 46.4329 57.3019 46.9192 57.6483L46.9692 57.6783C47.1757 57.8281 47.3955 57.9647 47.6287 58.1113C47.7219 58.1712 47.8285 58.2512 47.9284 58.3111C48.2815 58.5376 48.6279 58.7508 48.9877 58.9673C49.0443 58.9906 49.0942 59.0206 49.1475 59.0439C49.4473 59.2271 49.7737 59.4036 50.0868 59.5668C50.1967 59.6335 50.3033 59.6834 50.4199 59.7467C50.6397 59.8566 50.8596 59.9732 51.0761 60.0864L51.1827 60.1331C51.6323 60.3562 52.092 60.5628 52.5416 60.7659C52.6549 60.8126 52.7515 60.8492 52.8481 60.8958C53.2178 61.0557 53.5942 61.2089 53.9672 61.3522C54.1338 61.4088 54.2903 61.4754 54.4469 61.5254C54.7866 61.6519 55.1464 61.7685 55.4794 61.8851L55.9458 62.035C56.4354 62.1849 56.9284 62.3814 57.4413 62.468C83.8548 66.8414 89.9702 46.4967 89.9702 46.4967C84.4643 54.424 73.809 58.1979 62.4542 55.2501C61.9516 55.1203 61.4529 54.9759 60.9587 54.8171C60.7988 54.7704 60.6589 54.7205 60.5057 54.6738C60.1593 54.5539 59.8029 54.4407 59.4664 54.3108L58.9868 54.1309C58.6104 53.981 58.2307 53.8411 57.8676 53.6813C57.7544 53.6313 57.6511 53.598 57.5645 53.548C57.0982 53.3382 56.6286 53.1317 56.1722 52.9085L55.4861 52.5521L55.0897 52.3523C54.7911 52.1936 54.4968 52.027 54.2071 51.8526C54.136 51.8178 54.0671 51.7788 54.0006 51.7361C53.6475 51.5162 53.2778 51.303 52.9413 51.0765C52.8281 51.0133 52.7248 50.9367 52.6183 50.87L51.9254 50.417C51.4458 50.084 50.9762 49.7242 50.4998 49.3745C50.3933 49.2779 50.29 49.198 50.1867 49.1114C45.1938 45.1876 41.2568 39.8183 39.3882 33.7462C37.423 27.4277 37.856 20.3463 41.2535 14.594M55.5494 14.1043C52.5217 18.5477 52.2319 24.0635 54.317 28.9598C56.532 34.1659 61.0586 38.2529 66.3346 40.1847C66.5511 40.268 66.761 40.338 66.9875 40.4179L67.2806 40.5078C67.587 40.6077 67.8968 40.7177 68.2132 40.7876C82.8056 43.6022 86.7559 33.2932 87.8185 31.781C84.3444 36.7706 78.5188 37.9664 71.3708 36.2277C70.7885 36.0821 70.2147 35.9042 69.6521 35.6948C68.9516 35.4491 68.2645 35.1667 67.5937 34.8487C66.3239 34.2346 65.1169 33.4983 63.9897 32.6504C57.5879 27.7974 53.6208 18.541 57.7977 11" fill="#0769AD"/>
</svg>
