<svg width="100" height="100" viewBox="0 0 100 100" fill="none" xmlns="http://www.w3.org/2000/svg">
<g clip-path="url(#clip0_4_64)">
<rect width="100" height="100" rx="20" fill="white"/>
<path d="M0 0H100V100H0V0Z" fill="#F7DF1E"/>
<path d="M26.2937 83.5672L33.9461 78.9359C35.4226 81.5535 36.7656 83.7683 39.9871 83.7683C43.075 83.7683 45.0222 82.5605 45.0222 77.8621V45.9098H54.4195V77.9949C54.4195 87.7281 48.714 92.1586 40.3898 92.1586C32.8722 92.1586 28.5086 88.2652 26.2933 83.5664M59.5238 82.5601L67.1754 78.1301C69.1898 81.4195 71.8078 83.8359 76.439 83.8359C80.3332 83.8359 82.816 81.889 82.816 79.2039C82.816 75.982 80.2652 74.8406 75.9691 72.9617L73.6203 71.9539C66.8402 69.0683 62.3429 65.4433 62.3429 57.791C62.3429 50.7426 67.7129 45.3723 76.1039 45.3723C82.0781 45.3723 86.3742 47.4535 89.4617 52.8906L82.1445 57.5898C80.5332 54.7035 78.7886 53.5625 76.1035 53.5625C73.3511 53.5625 71.6058 55.3078 71.6058 57.5898C71.6058 60.409 73.3512 61.5508 77.3785 63.2961L79.7277 64.3027C87.716 67.7266 92.2133 71.2168 92.2133 79.0699C92.2133 87.5285 85.5679 92.1598 76.6402 92.1598C67.914 92.1598 62.2754 87.998 59.5234 82.5605" fill="black"/>
</g>
<defs>
<clipPath id="clip0_4_64">
<rect width="100" height="100" rx="20" fill="white"/>
</clipPath>
</defs>
</svg>
