<svg width="100" height="100" viewBox="0 0 100 100" fill="none" xmlns="http://www.w3.org/2000/svg">
<rect width="100" height="100" rx="20" fill="white"/>
<path d="M71.4519 14.0057C70.9788 14.0321 70.5155 14.1515 70.0885 14.357C69.6616 14.5625 69.2793 14.8502 68.9636 15.2035C68.6478 15.5571 68.4048 15.9694 68.2486 16.417C68.0923 16.8645 68.0258 17.3385 68.0528 17.8118C68.0799 18.285 68.1999 18.7483 68.4062 19.1752C68.6124 19.602 68.9008 19.984 69.2548 20.2993C73.4268 24.0185 76.7634 28.5795 79.0448 33.6818C81.3262 38.7842 82.5005 44.312 82.4905 49.9011C82.4975 53.2215 81.8486 56.5105 80.5811 59.5794C79.3136 62.6483 77.4524 65.4367 75.1044 67.7844C72.7564 70.1321 69.9678 71.9929 66.8987 73.26C63.8296 74.5271 60.5405 75.1756 57.2201 75.1682C53.8998 75.1756 50.6106 74.5271 47.5416 73.26C44.4725 71.9929 41.6839 70.1321 39.3359 67.7844C36.9879 65.4367 35.1267 62.6483 33.8592 59.5794C32.5916 56.5105 31.9427 53.2215 31.9497 49.9011C31.9418 48.4766 32.2166 47.0648 32.758 45.7472C33.2995 44.4297 34.0969 43.2326 35.1042 42.2254C36.1114 41.2181 37.3085 40.4207 38.626 39.8792C39.9436 39.3378 41.3554 39.063 42.7799 39.0709C48.8022 39.0709 53.6101 43.8689 53.6101 49.9011C53.6101 50.8577 53.9901 51.775 54.6665 52.4514C55.3429 53.1278 56.2602 53.5078 57.2168 53.5078C57.691 53.5087 58.1607 53.4161 58.5991 53.2352C59.0374 53.0543 59.4358 52.7888 59.7715 52.4538C60.1071 52.1188 60.3733 51.7209 60.555 51.2829C60.7367 50.8448 60.8302 50.3753 60.8302 49.9011C60.8302 39.9743 52.7067 31.8508 42.7799 31.8508C32.8531 31.8508 24.7329 39.9743 24.7329 49.9011C24.7329 67.7959 39.3187 82.3883 57.2201 82.3883C75.1215 82.3883 89.7073 67.7959 89.7073 49.9011C89.7118 43.2974 88.3204 36.7674 85.6242 30.7393C82.928 24.7111 78.9881 19.3209 74.0627 14.9222C73.7092 14.6051 73.2967 14.3609 72.8487 14.2036C72.4006 14.0463 71.926 13.9791 71.4519 14.0057ZM42.7799 17.4039C24.8785 17.4073 10.2927 31.9997 10.2927 49.8978C10.2872 56.5563 11.7009 63.1395 14.4396 69.2087C17.1784 75.2779 21.1793 80.6936 26.1756 85.095C26.5309 85.4092 26.9446 85.6502 27.3931 85.8043C27.8416 85.9584 28.3161 86.0225 28.7894 85.993C29.2627 85.9635 29.7255 85.841 30.1514 85.6324C30.5773 85.4238 30.9579 85.1332 31.2714 84.7774C31.5858 84.4223 31.827 84.0088 31.9814 83.5604C32.1357 83.112 32.2002 82.6376 32.171 82.1643C32.1418 81.691 32.0195 81.2281 31.8112 80.8021C31.6029 80.3761 31.3127 79.9953 30.957 79.6816C26.7246 75.9614 23.3357 71.3799 21.0171 66.244C18.6985 61.1081 17.5037 55.5361 17.5128 49.9011C17.5054 46.5807 18.1538 43.2916 19.421 40.2225C20.6881 37.1534 22.5489 34.3649 24.8966 32.0168C27.2443 29.6688 30.0327 27.8077 33.1016 26.5401C36.1705 25.2726 39.4595 24.6237 42.7799 24.6307C46.1003 24.6233 49.3894 25.2717 52.4585 26.5389C55.5275 27.806 58.3161 29.6668 60.6641 32.0145C63.0121 34.3622 64.8733 37.1506 66.1409 40.2195C67.4084 43.2884 68.0573 46.5774 68.0503 49.8978C68.0578 51.3221 67.7827 52.7338 67.2411 54.0511C66.6995 55.3685 65.902 56.5653 64.8948 57.5725C63.8877 58.5797 62.6908 59.3771 61.3735 59.9187C60.0561 60.4604 58.6445 60.7354 57.2201 60.728C55.7958 60.7354 54.3841 60.4604 53.0668 59.9187C51.7494 59.3771 50.5526 58.5797 49.5454 57.5725C48.5382 56.5653 47.7408 55.3685 47.1992 54.0511C46.6575 52.7338 46.3825 51.3221 46.39 49.8978C46.39 48.9412 46.01 48.0238 45.3336 47.3474C44.6572 46.671 43.7398 46.291 42.7832 46.291C42.309 46.2902 41.8393 46.3828 41.4009 46.5637C40.9626 46.7445 40.5642 47.0101 40.2286 47.3451C39.8929 47.6801 39.6267 48.078 39.445 48.516C39.2633 48.954 39.1698 49.4236 39.1698 49.8978C39.1698 59.8246 47.2933 67.9481 57.2201 67.9481C67.147 67.9481 75.2671 59.8246 75.2671 49.8978C75.2671 32.003 60.6813 17.4106 42.7799 17.4106V17.4039Z" fill="#F56565"/>
</svg>
