<svg width="100" height="100" viewBox="0 0 100 100" fill="none" xmlns="http://www.w3.org/2000/svg">
<rect width="100" height="100" rx="20" fill="white"/>
<path d="M63.3259 10.0257L12.8323 13.6625C12.8168 13.6636 12.8014 13.6649 12.786 13.6663C12.7602 13.6697 12.7345 13.6735 12.7088 13.6778C12.661 13.6838 12.6134 13.6914 12.5661 13.7008C12.5467 13.7057 12.5275 13.7108 12.5083 13.7162C12.4863 13.7209 12.4644 13.7261 12.4427 13.7315C12.3945 13.7451 12.3469 13.7604 12.3 13.7776C12.2688 13.7896 12.2379 13.8024 12.2074 13.8159C12.1893 13.8233 12.1713 13.831 12.1534 13.839C12.0496 13.8866 11.9503 13.943 11.8563 14.0077C11.8395 14.0177 11.8228 14.028 11.8062 14.0384C11.7651 14.0689 11.7252 14.1008 11.6866 14.1343C11.6788 14.142 11.6711 14.1496 11.6635 14.1574C11.6304 14.1857 11.5982 14.2151 11.567 14.2456C11.5473 14.2669 11.528 14.2886 11.5092 14.3108C11.4798 14.3431 11.4515 14.3764 11.4243 14.4106C11.4139 14.4232 11.4036 14.436 11.3935 14.4489C11.3636 14.4888 11.3353 14.5297 11.3086 14.5717C11.3007 14.5844 11.293 14.5972 11.2854 14.61C11.2594 14.6513 11.235 14.6935 11.2122 14.7366C11.2029 14.7544 11.1939 14.7723 11.1852 14.7903C11.164 14.8369 11.1447 14.8842 11.1273 14.9323C11.1247 14.9374 11.1221 14.9425 11.1196 14.9476C11.0798 15.0586 11.0501 15.1728 11.0309 15.289C11.0267 15.3094 11.0228 15.3299 11.0193 15.3504C11.012 15.4026 11.0069 15.4551 11.0039 15.5077V15.5154C11.0016 15.5511 11.0003 15.587 11 15.6228V66.1766C11 68.1911 11.6224 70.161 12.786 71.812C12.8164 71.8555 12.8486 71.8977 12.8824 71.9386L25.0757 86.5316C25.1934 86.7421 25.349 86.9294 25.5348 87.084L26.3063 88.0047C26.4042 88.122 26.5155 88.2276 26.638 88.3193C27.7975 89.4382 29.4014 90.0985 31.1319 89.988L84.4569 86.5661C87.5558 86.3669 90 83.7729 90 80.6852V29.6327C90 27.8189 89.1419 26.2109 87.836 25.129C87.7436 25.0237 87.6401 24.9285 87.5274 24.8451L86.5708 24.1431C86.4511 24.0297 86.3176 23.9318 86.1734 23.8515L69.9028 11.917C68.0085 10.5268 65.6733 9.85637 63.3259 10.0257ZM63.6114 13.9425C65.0204 13.8409 66.4222 14.2449 67.5575 15.0781L79.666 23.9628L30.2408 27.1813C28.5391 27.2918 26.8744 26.6656 25.6659 25.4666H25.6621L17.4265 17.2724L63.6114 13.9425ZM14.95 20.3644L22.8731 28.244L24.825 30.1851V80.0829L16.0146 69.5371C15.3251 68.5516 14.95 67.3806 14.95 66.1766V20.3644ZM83.9477 27.6724C85.1153 27.5979 86.05 28.4706 86.05 29.6327V80.6852C86.05 81.7379 85.2588 82.5776 84.2023 82.6455L30.8773 86.0674C30.2974 86.1044 29.7751 85.9068 29.396 85.5572L29.3922 85.5533L29.3883 85.5495C29.3803 85.542 29.377 85.5303 29.369 85.5226C29.3614 85.5123 29.3537 85.5021 29.3459 85.492C28.9967 85.1407 28.775 84.6614 28.775 84.1071V33.0546C28.775 31.9989 29.565 31.1623 30.6227 31.0943L83.9477 27.6724ZM77.1548 37.2284L67.1332 37.7808C65.6046 37.938 63.8235 39.0708 63.8235 40.9112L68.2673 41.2795V62.279L52.8993 38.7054L41.3811 39.3498C39.2263 39.507 38.6384 41.0997 38.6384 43.1247H43.0822V73.6956C43.0822 73.6956 41.0039 74.2534 40.3087 74.4321C38.8314 74.8112 38.6384 76.0889 38.6384 77.0101C38.6384 77.0101 46.0496 76.6401 49.4585 76.3848C53.3275 76.0901 53.4548 73.5114 53.4548 73.5114L49.011 72.5907V49.9378C49.011 49.9378 60.3075 67.9876 63.7618 73.2928C65.3872 75.7853 66.6009 76.2735 68.7379 76.2735C70.4917 76.2735 72.1502 75.7583 74.1884 74.6623V40.5621C74.1884 40.5621 74.5638 40.5422 75.7468 40.1631C77.0958 39.7291 77.1548 38.5169 77.1548 37.2284Z" fill="black"/>
</svg>
