<svg width="100" height="100" viewBox="0 0 100 100" fill="none" xmlns="http://www.w3.org/2000/svg">
<rect width="100" height="100" rx="20" fill="white"/>
<path d="M50 10C72.09 10 90 27.91 90 50C90 72.09 72.09 90 50 90C27.91 90 10 72.09 10 50C10 27.91 27.91 10 50 10ZM42.05 63.3267C42.6333 65.4767 42.57 67.4867 41.97 69.3L41.7533 69.9C41.6733 70.1033 41.58 70.3 41.4933 70.4867C41.0267 71.4533 40.4067 72.3533 39.6433 73.1867C37.3167 75.7167 34.07 76.6767 32.6767 75.87C31.1767 74.9967 31.9233 71.42 34.6233 68.57C37.5267 65.51 41.69 63.54 41.69 63.54V63.53L42.05 63.3267ZM75.0867 27.1233C73.28 20.0133 61.4967 17.6767 50.3467 21.64C43.7167 23.9967 36.5333 27.7 31.37 32.53C25.2267 38.2667 24.25 43.2667 24.6533 45.3567C26.0767 52.7267 36.1767 57.5467 40.33 61.1233V61.1433C39.1067 61.7433 30.1433 66.24 28.0433 70.8933C25.7933 75.7933 28.3933 79.2967 30.0933 79.7433C35.3433 81.1967 40.7433 78.5433 43.6433 74.2467C46.4433 70.0433 46.1967 64.6433 44.99 61.9933C46.6433 61.5433 48.59 61.3433 51.09 61.6467C58.0933 62.4467 59.4933 66.8467 59.19 68.6467C58.89 70.4433 57.4467 71.4933 56.9433 71.7933C56.4433 72.0967 56.2933 72.1933 56.34 72.3967C56.39 72.6967 56.6433 72.6967 57.04 72.6467C57.59 72.5467 60.6933 71.1467 60.8433 67.7433C60.9933 63.4433 56.89 58.6467 49.5933 58.7433C46.5933 58.7967 44.69 59.0467 43.3433 59.5967C43.2433 59.4467 43.14 59.3467 42.9933 59.2467C38.4933 54.3967 30.1433 50.9967 30.4933 44.5467C30.5933 42.1967 31.4433 36 46.4933 28.5C58.8433 22.3467 68.6967 24.05 70.3967 27.8C72.84 33.1467 65.1433 43.1 52.2933 44.5467C47.3933 45.0967 44.8433 43.2 44.19 42.4967C43.4933 41.7467 43.3933 41.6967 43.1433 41.85C42.7433 42.05 42.9933 42.7 43.1433 43.1C43.5433 44.1 45.0933 45.85 47.7967 46.75C50.1433 47.5 55.8967 47.9467 62.7967 45.25C70.5433 42.2533 76.5933 33.9 74.8433 26.9L75.0867 27.1233Z" fill="#CC6699"/>
</svg>
