<svg width="100" height="100" viewBox="0 0 100 100" fill="none" xmlns="http://www.w3.org/2000/svg">
<g clip-path="url(#clip0_12_5)">
<rect width="100" height="100" rx="20" fill="white"/>
<path d="M52.0833 60.4167C52.0833 65 55.8333 68.75 60.4167 68.75H81.25C85.8333 68.75 89.5833 65 89.5833 60.4167C89.5833 55.8333 85.8333 52.0833 81.25 52.0833H60.4167C55.8333 52.0833 52.0833 55.8333 52.0833 60.4167Z" fill="#F5BC00"/>
<path d="M52.0833 72.9167V81.25C52.0833 85.8333 55.8333 89.5833 60.4167 89.5833C65 89.5833 68.75 85.8333 68.75 81.25C68.75 76.6667 65 72.9167 60.4167 72.9167H52.0833Z" fill="#F5BC00"/>
<path d="M39.5833 52.0833C35 52.0833 31.25 55.8333 31.25 60.4167V81.25C31.25 85.8333 35 89.5833 39.5833 89.5833C44.1667 89.5833 47.9167 85.8333 47.9167 81.25V60.4167C47.9167 55.8333 44.1667 52.0833 39.5833 52.0833Z" fill="#F55376"/>
<path d="M27.0833 52.0833H18.75C14.1667 52.0833 10.4167 55.8333 10.4167 60.4167C10.4167 65 14.1667 68.75 18.75 68.75C23.3333 68.75 27.0833 65 27.0833 60.4167V52.0833Z" fill="#F55376"/>
<path d="M47.9167 39.5833C47.9167 35 44.1667 31.25 39.5833 31.25H18.75C14.1667 31.25 10.4167 35 10.4167 39.5833C10.4167 44.1667 14.1667 47.9167 18.75 47.9167H39.5833C44.1667 47.9167 47.9167 44.1667 47.9167 39.5833Z" fill="#00B3D7"/>
<path d="M47.9167 27.0833V18.75C47.9167 14.1667 44.1667 10.4167 39.5833 10.4167C35 10.4167 31.25 14.1667 31.25 18.75C31.25 23.3333 35 27.0833 39.5833 27.0833H47.9167Z" fill="#00B3D7"/>
<path d="M60.4167 47.9167C65 47.9167 68.75 44.1667 68.75 39.5833V18.75C68.75 14.1667 65 10.4167 60.4167 10.4167C55.8333 10.4167 52.0833 14.1667 52.0833 18.75V39.5833C52.0833 44.1667 55.8333 47.9167 60.4167 47.9167Z" fill="#00B569"/>
<path d="M72.9167 47.9167H81.25C85.8333 47.9167 89.5833 44.1667 89.5833 39.5833C89.5833 35 85.8333 31.25 81.25 31.25C76.6667 31.25 72.9167 35 72.9167 39.5833V47.9167Z" fill="#00B569"/>
</g>
<defs>
<clipPath id="clip0_12_5">
<rect width="100" height="100" rx="20" fill="white"/>
</clipPath>
</defs>
</svg>
