<svg width="100" height="100" viewBox="0 0 100 100" fill="none" xmlns="http://www.w3.org/2000/svg">
<g clip-path="url(#clip0_4_43)">
<rect width="100" height="100" rx="20" fill="white"/>
<g clip-path="url(#clip1_4_43)">
<rect width="100" height="100" fill="white"/>
<path d="M4.6875 0C2.09167 0 0 2.09167 0 4.6875V95.3125C0 97.9083 2.09167 100 4.6875 100H95.3125C97.9083 100 100 97.9083 100 95.3125V4.6875C100 2.09167 97.9083 0 95.3125 0H4.6875ZM77.0333 40.625C79.5833 40.625 81.8417 40.7792 83.8125 41.0875C85.6714 41.366 87.4955 41.8409 89.2542 42.5042V52.7458C88.41 52.162 87.513 51.6584 86.575 51.2417C85.6076 50.8064 84.609 50.4443 83.5875 50.1583C81.6525 49.6191 79.6545 49.3389 77.6458 49.325C76.3958 49.325 75.2583 49.4417 74.2333 49.6833C73.3198 49.8787 72.4434 50.2191 71.6375 50.6917C70.9292 51.125 70.3875 51.6458 70 52.25C69.6103 52.8589 69.4075 53.5687 69.4167 54.2917C69.4167 55.1083 69.6375 55.8458 70.0667 56.4958C70.5 57.1458 71.1167 57.7625 71.9125 58.3458C72.7083 58.9292 73.675 59.4958 74.8125 60.0542C75.95 60.6167 77.2375 61.1958 78.6708 61.7875C80.6292 62.6083 82.3875 63.4833 83.9458 64.4042C85.5042 65.3292 86.8417 66.375 87.9583 67.5417C89.075 68.7042 89.925 70.0333 90.5167 71.5292C91.1083 73.025 91.4083 74.7625 91.4083 76.75C91.4083 79.4875 90.8875 81.7917 89.8542 83.65C88.8446 85.4828 87.3956 87.0362 85.6375 88.1708C83.7424 89.3725 81.642 90.2143 79.4417 90.6542C77.0833 91.1542 74.5958 91.4042 71.9833 91.4042C69.4121 91.4154 66.8454 91.1867 64.3167 90.7208C62.1289 90.3424 60.007 89.6506 58.0167 88.6667V77.7083C61.7824 80.913 66.5594 82.6839 71.5042 82.7083C72.8917 82.7083 74.1042 82.5833 75.1375 82.3333C76.175 82.0833 77.0375 81.7333 77.7333 81.2917C78.425 80.8417 78.9417 80.3167 79.2875 79.7083C79.6697 79 79.8436 78.198 79.7891 77.395C79.7345 76.592 79.4537 75.8209 78.9792 75.1708C78.3601 74.3516 77.6029 73.6466 76.7417 73.0875C75.6736 72.3795 74.5489 71.7607 73.3792 71.2375C71.9927 70.6043 70.5938 69.9986 69.1833 69.4208C65.3583 67.825 62.5083 65.8708 60.6292 63.5667C58.7542 61.2625 57.8125 58.475 57.8125 55.2125C57.8125 52.6542 58.325 50.4583 59.35 48.6208C60.375 46.7833 61.7667 45.2708 63.5333 44.0833C65.4019 42.8506 67.4764 41.963 69.6583 41.4625C72.0749 40.8927 74.5505 40.6116 77.0333 40.625ZM14.0625 41.4083H53.9083V50.4333H39.6083V90.625H28.2875V50.4333H14.0625V41.4083Z" fill="#3178C6"/>
</g>
</g>
<defs>
<clipPath id="clip0_4_43">
<rect width="100" height="100" rx="20" fill="white"/>
</clipPath>
<clipPath id="clip1_4_43">
<rect width="100" height="100" fill="white"/>
</clipPath>
</defs>
</svg>
